<?xml version="1.0" encoding="UTF-8" standalone="no"?>
<!-- Created with Inkscape (http://www.inkscape.org/) -->

<svg
   xmlns:osb="http://www.openswatchbook.org/uri/2009/osb"
   xmlns:dc="http://purl.org/dc/elements/1.1/"
   xmlns:cc="http://creativecommons.org/ns#"
   xmlns:rdf="http://www.w3.org/1999/02/22-rdf-syntax-ns#"
   xmlns:svg="http://www.w3.org/2000/svg"
   xmlns="http://www.w3.org/2000/svg"
   xmlns:sodipodi="http://sodipodi.sourceforge.net/DTD/sodipodi-0.dtd"
   xmlns:inkscape="http://www.inkscape.org/namespaces/inkscape"
   version="1.1"
   id="svg64"
   width="59.299999"
   height="59.5"
   viewBox="0 0 59.299996 59.5"
   sodipodi:docname="logo.svg"
   inkscape:version="0.92.5 (2060ec1f9f, 2020-04-08)"
   inkscape:export-filename="/home/phlowrient/tmp/icon-34.png"
   inkscape:export-xdpi="56.219852"
   inkscape:export-ydpi="56.219852">
  <metadata
     id="metadata70">
    <rdf:RDF>
      <cc:Work
         rdf:about="">
        <dc:format>image/svg+xml</dc:format>
        <dc:type
           rdf:resource="http://purl.org/dc/dcmitype/StillImage" />
        <dc:title></dc:title>
      </cc:Work>
    </rdf:RDF>
  </metadata>
  <defs
     id="defs68">
    <linearGradient
       id="linearGradient6433"
       osb:paint="solid">
      <stop
         style="stop-color:#020000;stop-opacity:1;"
         offset="0"
         id="stop6431" />
    </linearGradient>
  </defs>
  <sodipodi:namedview
     pagecolor="#ffffff"
     bordercolor="#666666"
     borderopacity="1"
     objecttolerance="10"
     gridtolerance="10"
     guidetolerance="10"
     inkscape:pageopacity="0"
     inkscape:pageshadow="2"
     inkscape:window-width="1920"
     inkscape:window-height="1056"
     id="namedview66"
     showgrid="false"
     inkscape:zoom="11.112032"
     inkscape:cx="30.746915"
     inkscape:cy="25.027776"
     inkscape:window-x="0"
     inkscape:window-y="0"
     inkscape:window-maximized="0"
     inkscape:current-layer="layer4"
     inkscape:pagecheckerboard="true"
     fit-margin-top="4.5"
     fit-margin-left="4.3"
     fit-margin-right="5"
     fit-margin-bottom="5" />
  <g
     inkscape:groupmode="layer"
     id="layer4"
     inkscape:label="Layer 2"
     transform="translate(11.646898,10.492126)"
     style="display:inline">
    <path
       sodipodi:type="star"
       style="fill:#0ee2ec;fill-opacity:1;stroke:none;stroke-width:0.1;stroke-miterlimit:4;stroke-dasharray:none;stroke-opacity:1;paint-order:markers fill stroke"
       id="path4947"
       sodipodi:sides="5"
       sodipodi:cx="17.918575"
       sodipodi:cy="21.593836"
       sodipodi:r1="25.800251"
       sodipodi:r2="12.900125"
       sodipodi:arg1="0.83227737"
       sodipodi:arg2="1.4605959"
       inkscape:flatsided="false"
       inkscape:rounded="0"
       inkscape:randomized="0"
       d="M 35.287136,40.672255 19.337299,34.415709 5.1411012,44.007874 6.1626588,26.905299 -7.3468984,16.368055 9.2342957,12.054627 15.081128,-4.0499128 24.307312,10.386818 41.43041,10.970909 30.551311,24.206726 Z"
       inkscape:transform-center-x="0.8987987"
       inkscape:transform-center-y="-1.6801186"
       transform="matrix(1.0250668,0,0,1.0404141,0.18416331,-1.7785395)"
       inkscape:export-xdpi="245.75999"
       inkscape:export-ydpi="245.75999" />
    <path
       style="fill:#000000;fill-opacity:1;stroke-width:0.38726696"
       d="m 3.6437638,13.473886 c 0,-6.004104 0.03618,-6.2879595 1.1114897,-8.720506 0.6113191,-1.3829152 1.4038766,-2.6282706 1.7612391,-2.7674565 0.8461161,-0.3295463 11.0908284,-0.3295463 11.9369444,0 0.357363,0.1391859 1.14992,1.3845413 1.761239,2.7674565 1.075311,2.4325465 1.11149,2.716402 1.11149,8.720506 v 6.206116 H 12.484965 3.6437638 Z M 18.635366,13.437517 V 9.9261194 h -1.3454 -1.3454 v 2.1458536 2.145855 H 12.484965 9.0253645 V 12.071973 9.9261194 H 7.6799644 6.3345642 v 3.5113976 3.511398 h 6.1504008 6.150401 z M 13.253765,10.70643 c 0,-0.520207 -0.256267,-0.7803106 -0.7688,-0.7803106 -0.512533,0 -0.7688,0.2601036 -0.7688,0.7803106 0,0.520207 0.256267,0.780311 0.7688,0.780311 0.512533,0 0.7688,-0.260104 0.7688,-0.780311 z M 17.981351,5.8294888 17.339775,4.4639452 H 12.484965 7.6301557 L 6.9885789,5.8294888 6.3470022,7.1950323 h 6.1379628 6.137963 z"
       id="path74"
       inkscape:connector-curvature="0"
       mask="none"
       clip-path="none"
       inkscape:export-xdpi="245.75999"
       inkscape:export-ydpi="245.75999" />
  </g>
  <g
     inkscape:groupmode="layer"
     id="layer3"
     inkscape:label="Layer 1"
     transform="translate(11.646898,10.492126)"
     sodipodi:insensitive="true">
    <path
       style="fill:#000000;fill-opacity:1;stroke:none;stroke-width:0.058;stroke-miterlimit:4;stroke-dasharray:none;stroke-opacity:1"
       d="m 25.152367,40.405084 c -0.3621,-1.2172 -0.5176,-1.66192 -0.5816,-1.662207 -0.048,-2.33e-4 -0.2963,0.06413 -0.5519,0.142969 -0.2555,0.07884 -0.4818,0.124663 -0.5028,0.101809 -0.021,-0.02287 -0.1773,-0.519361 -0.3472,-1.103354 -0.1699,-0.584003 -0.3382,-1.06181 -0.3741,-1.06181 -0.036,0 -0.2825,0.06503 -0.5481,0.144503 -0.2655,0.07947 -0.4995,0.134116 -0.5201,0.121425 -0.021,-0.01274 -0.181,-0.50963 -0.3565,-1.104288 -0.2106,-0.713329 -0.3461,-1.081272 -0.3981,-1.081407 -0.043,-1.16e-4 -0.3008,0.06745 -0.572,0.150207 -0.2712,0.0827 -0.5007,0.141633 -0.5099,0.130906 -0.01,-0.01076 -0.085,-0.252564 -0.169,-0.537408 -0.084,-0.284843 -0.1602,-0.526034 -0.1702,-0.53599 -0.01,-0.01 -0.259,0.05677 -0.5535,0.14836 l -0.5355,0.16645 -0.1428,-0.474085 c -0.079,-0.260752 -0.3112,-1.030453 -0.5169,-1.710444 -0.2058,-0.67999 -0.3684,-1.23635 -0.3615,-1.23635 0.01,0 0.7545,-0.222543 1.6611,-0.494543 0.9066,-0.271991 1.6693,-0.494535 1.6947,-0.494535 0.025,0 0.1218,0.242178 0.2141,0.53817 0.092,0.296001 0.1914,0.535327 0.2204,0.531837 0.029,-0.0036 0.2708,-0.0679 0.5374,-0.143148 0.4634,-0.130771 0.4835,-0.143346 0.4539,-0.284566 -0.017,-0.08126 -0.6862,-2.329632 -1.4871,-4.996362 -0.8008,-2.666731 -1.4632,-4.890536 -1.472,-4.941795 -0.012,-0.07113 0.1071,-0.128752 0.5032,-0.24328 0.2855,-0.08252 0.5292,-0.180496 0.5416,-0.217656 0.012,-0.03713 -0.044,-0.28383 -0.125,-0.54817 -0.081,-0.264331 -0.1365,-0.491799 -0.1228,-0.505477 0.035,-0.03525 2.0816,-0.650329 2.1653,-0.650832 0.038,-2.33e-4 0.1389,0.22867 0.224,0.508661 0.085,0.280001 0.164,0.518725 0.1752,0.530501 0.011,0.01175 0.2576,-0.0513 0.5474,-0.140197 0.2897,-0.08888 0.5433,-0.145149 0.5634,-0.125022 0.02,0.02009 0.3318,1.021242 0.6926,2.224693 0.3608,1.203451 0.6695,2.201606 0.686,2.218127 0.017,0.0165 0.5206,-0.116465 1.1202,-0.295526 0.5996,-0.17907 1.1055,-0.310917 1.1243,-0.293006 0.019,0.01794 0.1011,0.260143 0.1831,0.538286 0.1266,0.429715 0.166,0.50276 0.2618,0.485952 0.062,-0.01085 0.8035,-0.226867 1.6478,-0.479996 0.8443,-0.25312 1.5569,-0.460218 1.5837,-0.460218 0.027,0 0.1244,0.242177 0.2171,0.538178 0.1243,0.397103 0.1919,0.534035 0.2579,0.522375 0.049,-0.009 0.5568,-0.156808 1.1278,-0.329133 l 1.0384,-0.31333 0.1692,0.547309 c 0.093,0.301024 0.1997,0.547309 0.237,0.547309 0.037,0 0.2863,-0.06539 0.5534,-0.145318 0.267,-0.07992 0.4946,-0.136261 0.5056,-0.125175 0.011,0.01112 0.089,0.25321 0.1723,0.538054 0.084,0.284834 0.1591,0.526115 0.1677,0.536169 0.01,0.01005 0.2394,-0.05148 0.513,-0.136789 0.2735,-0.0853 0.5286,-0.144655 0.5669,-0.13191 0.095,0.03157 2.091,6.698663 2.0194,6.744038 -0.031,0.01955 -0.2764,0.09732 -0.5457,0.172872 -0.2694,0.07552 -0.4898,0.16802 -0.4898,0.205502 0,0.03749 0.1428,0.547866 0.3172,1.134209 0.1744,0.586334 0.3119,1.070115 0.3054,1.075066 -0.01,0.0054 -0.2447,0.07749 -0.5296,0.161114 -0.2848,0.08368 -0.5282,0.162423 -0.5408,0.175034 -0.013,0.01265 0.2022,0.775279 0.4773,1.69481 0.2751,0.919531 0.4923,1.678253 0.4827,1.686057 -0.025,0.02018 -12.153,3.650212 -12.2941,3.679765 -0.1062,0.02224 -0.1612,-0.125434 -0.6109,-1.63739 z m 6.4131,-1.34685 c 2.7282,-0.818314 4.9716,-1.499112 4.9854,-1.512879 0.014,-0.01372 -0.1169,-0.502769 -0.2903,-1.086672 -0.1735,-0.583895 -0.3153,-1.087498 -0.3153,-1.119114 0,-0.03157 0.2277,-0.124071 0.506,-0.205466 0.2784,-0.08135 0.5205,-0.162424 0.5382,-0.180075 0.018,-0.01767 -0.1119,-0.512123 -0.2879,-1.098816 -0.176,-0.586702 -0.32,-1.086753 -0.32,-1.11123 0,-0.02449 0.046,-0.05785 0.1018,-0.07409 0.7883,-0.229207 0.9455,-0.289615 0.9455,-0.363297 0,-0.112465 -1.9287,-6.5552 -1.9804,-6.615383 -0.023,-0.02628 -0.2617,0.01955 -0.5315,0.101818 -0.2697,0.08225 -0.5158,0.149606 -0.5468,0.149606 -0.031,0 -0.1161,-0.216705 -0.1891,-0.481565 -0.073,-0.26486 -0.1512,-0.510177 -0.1735,-0.545148 -0.028,-0.04386 -0.2027,-0.01498 -0.5641,0.09332 -0.4444,0.133138 -0.5206,0.173832 -0.5033,0.268789 0.011,0.06153 0.2272,0.804456 0.48,1.650933 0.2528,0.846468 0.4595,1.566461 0.4593,1.599979 -4e-4,0.07301 -1.0596,0.389819 -1.1138,0.333152 -0.021,-0.02171 -0.3323,-1.027843 -0.6921,-2.235824 -0.3599,-1.207989 -0.6837,-2.196341 -0.7195,-2.196341 -0.036,0 -0.536,0.139956 -1.1115,0.311016 -0.913,0.271381 -1.0439,0.325142 -1.027,0.421812 0.011,0.0609 0.2266,0.801918 0.48,1.646628 0.2533,0.84471 0.4606,1.553824 0.4606,1.575799 0,0.04511 -1.097,0.37989 -1.1274,0.344094 -0.017,-0.01955 -1.1106,-3.664742 -1.2685,-4.226627 -0.029,-0.103997 -0.085,-0.189312 -0.1231,-0.18959 -0.094,-6.73e-4 -2.0954,0.591904 -2.1465,0.635431 -0.022,0.01875 0.2592,1.029054 0.6249,2.245044 0.3657,1.215981 0.6652,2.216585 0.6655,2.223563 9e-4,0.02529 -0.9678,0.30732 -1.0558,0.30732 -0.07,0 -0.438,-1.161995 -1.5913,-5.018131 -0.8255,-2.759974 -1.5059,-5.025001 -1.5121,-5.033396 -0.01,-0.01139 -2.1571,0.62056 -2.223,0.653791 -0.01,0.0036 0.8991,3.042074 2.0127,6.752774 1.1136,3.7107 2.0201,6.75324 2.0145,6.761187 -0.01,0.0081 -0.2633,0.09043 -0.5726,0.183303 l -0.5624,0.168854 -0.1506,-0.503306 c -0.4233,-1.415214 -0.5038,-1.669939 -0.5388,-1.70456 -0.021,-0.02072 -0.2796,0.03534 -0.5747,0.124465 l -0.5367,0.16211 -0.147,-0.481969 c -0.081,-0.265085 -0.147,-0.510912 -0.147,-0.546278 0,-0.03534 -0.028,-0.06431 -0.062,-0.06431 -0.072,0 -2.152,0.62326 -2.1829,0.65415 -0.021,0.02072 0.6072,2.14876 0.6455,2.187722 0.011,0.01103 0.2604,-0.05077 0.5546,-0.137327 0.4392,-0.129229 0.5439,-0.14323 0.5851,-0.07821 0.028,0.0435 0.05,0.101253 0.051,0.128287 4e-4,0.027 0.056,0.229943 0.1229,0.450908 0.087,0.285597 0.1498,0.401748 0.2182,0.401748 0.053,-9e-6 0.3045,-0.06431 0.5592,-0.142915 0.2548,-0.07857 0.4716,-0.13452 0.4818,-0.124268 0.018,0.01803 0.6551,2.125161 0.6551,2.16668 0,0.05211 0.2422,0.0072 0.6654,-0.124681 0.2539,-0.07884 0.4699,-0.135211 0.48,-0.125165 0.017,0.01749 0.6582,2.130875 0.6582,2.170967 0,0.05175 0.2469,0.0063 0.6668,-0.123578 0.2547,-0.07857 0.4731,-0.132932 0.4853,-0.120743 0.019,0.01937 0.6515,2.121152 0.6515,2.166259 0,0.06018 0.6653,-0.130404 5.1329,-1.470464 z"
       id="path4937"
       inkscape:connector-curvature="0"
       transform="translate(-6.625,-6.6193238)" />
    <path
       style="fill:#ffffff;fill-opacity:1;stroke:none;stroke-width:0.00521957;stroke-miterlimit:4;stroke-dasharray:none;stroke-opacity:1;paint-order:markers fill stroke"
       d="m 22.068478,26.058788 c -0.194596,-0.655536 -0.370205,-1.240328 -0.390241,-1.299538 -0.02684,-0.07932 0.295236,-0.114848 1.223869,-0.134989 l 1.260299,-0.02733 0.108251,0.510824 0.108251,0.510825 -0.408508,0.767916 -0.408508,0.767916 0.690094,0.03054 c 0.414686,0.01835 0.187285,0.03756 -0.569801,0.04813 l -1.259895,0.01759 z"
       id="path6489"
       inkscape:connector-curvature="0"
       transform="translate(-6.625,-6.6193238)" />
    <path
       style="fill:#ffffff;fill-opacity:1;stroke:none;stroke-width:0.00521957;stroke-miterlimit:4;stroke-dasharray:none;stroke-opacity:1;paint-order:markers fill stroke"
       d="m 26.161416,39.468194 c -0.16199,-0.556829 -0.321028,-1.041417 -0.353418,-1.076864 -0.03239,-0.03545 -0.295442,-0.0027 -0.584563,0.07283 -0.28912,0.0755 -0.537447,0.12475 -0.551837,0.109444 -0.01439,-0.01531 -0.156642,-0.473293 -0.316112,-1.017748 -0.159471,-0.544455 -0.324282,-1.02709 -0.366245,-1.072522 -0.04607,-0.04988 -0.228965,-0.03869 -0.461655,0.02824 -0.211946,0.06096 -0.451525,0.129743 -0.532398,0.152848 -0.102787,0.02936 -0.165307,-0.0333 -0.207735,-0.208221 -0.03338,-0.137626 -0.180382,-0.641257 -0.326669,-1.119181 l -0.265975,-0.868952 -0.471211,0.125446 c -0.259167,0.06899 -0.514437,0.125925 -0.567268,0.126513 -0.05283,6.3e-4 -0.166266,-0.221663 -0.252078,-0.493891 -0.08581,-0.272227 -0.208262,-0.494959 -0.27211,-0.494959 -0.06385,0 -0.312993,0.05926 -0.553656,0.131689 -0.240662,0.07243 -0.446198,0.12305 -0.456745,0.112491 -0.04423,-0.04428 -0.574172,-1.897702 -0.574172,-2.008118 0,-0.07432 0.336998,-0.223578 0.877427,-0.388614 1.275637,-0.389552 1.202564,-0.397299 1.366304,0.14483 0.07759,0.256891 0.163202,0.488255 0.190252,0.514143 0.02705,0.02589 0.269215,-0.01097 0.538144,-0.08192 0.26893,-0.07094 0.516641,-0.09982 0.550469,-0.06418 0.03383,0.03564 0.191285,0.490021 0.349904,1.009728 0.15862,0.519707 0.322821,0.982098 0.364892,1.027535 0.04595,0.04963 0.295522,0.0163 0.62507,-0.08348 0.476007,-0.144123 0.542384,-0.190766 0.501762,-0.352592 -0.13185,-0.525246 -1.87061,-6.331577 -1.942285,-6.485974 -0.04596,-0.09899 -0.222348,-0.665945 -0.391985,-1.259895 -0.169638,-0.593951 -0.574576,-1.991085 -0.899864,-3.104743 -0.652592,-2.234215 -0.728482,-2.519791 -0.669621,-2.519791 0.02206,0 0.441535,-0.121028 0.932179,-0.268952 0.490644,-0.147923 0.955536,-0.269413 1.033094,-0.269977 0.106784,-7.77e-4 0.311736,0.572412 0.844308,2.361278 0.386811,1.299267 0.732912,2.402801 0.769114,2.452297 0.0362,0.0495 0.138843,0.393717 0.22809,0.764936 0.219914,0.914727 1.263798,4.227243 1.363592,4.327038 0.10432,0.104319 1.109189,-0.179407 1.106466,-0.312412 -0.0011,-0.05497 -0.282634,-1.048549 -0.625575,-2.207946 -0.342941,-1.159398 -0.606289,-2.135889 -0.585219,-2.169981 0.0534,-0.0864 2.023906,-0.655481 2.078978,-0.60041 0.02466,0.02466 0.328866,0.990645 0.676017,2.146636 0.347152,1.155992 0.660712,2.132347 0.696801,2.169679 0.06564,0.0679 0.994727,-0.16663 1.103368,-0.27853 0.03168,-0.03263 -0.155252,-0.798324 -0.4154,-1.701546 L 29.240855,25.092173 30.151214,24.8161 c 0.500697,-0.15184 0.97411,-0.294112 1.05203,-0.31616 0.112795,-0.03192 0.238108,0.267364 0.614811,1.468333 0.902868,2.878441 0.912114,2.903304 1.079724,2.903304 0.229211,0 0.998559,-0.27509 0.998559,-0.357047 0,-0.03858 -0.202483,-0.77286 -0.449963,-1.631729 -0.247479,-0.858868 -0.449963,-1.591361 -0.449963,-1.627762 0,-0.04939 0.816715,-0.343134 0.954023,-0.343134 0.01179,0 0.09082,0.212608 0.175634,0.472461 0.08481,0.259854 0.169167,0.49914 0.187455,0.531747 0.01829,0.03261 0.245753,0.0027 0.505476,-0.06643 0.259722,-0.06914 0.499269,-0.126193 0.532326,-0.126781 0.07874,-0.0014 0.364667,0.877429 1.229368,3.778619 0.95341,3.198829 0.901739,2.852314 0.443675,2.975303 -0.733064,0.196826 -0.714387,0.130882 -0.372794,1.31619 0.16748,0.581147 0.304509,1.081054 0.304509,1.110907 0,0.02985 -0.222731,0.124486 -0.494959,0.210298 -0.29823,0.09401 -0.494959,0.207471 -0.494959,0.285465 0,0.07119 0.121726,0.562948 0.270503,1.092786 0.148775,0.529838 0.239893,0.991359 0.202483,1.025601 -0.09703,0.08881 -9.7147,2.96254 -9.914906,2.96254 -0.03757,0 -0.20084,-0.455587 -0.36283,-1.012417 z"
       id="path6495"
       inkscape:connector-curvature="0"
       transform="translate(-6.625,-6.6193238)" />
  </g>
  <path
     style="fill:#ffffff;fill-opacity:1;stroke:none;stroke-width:0.00521957;stroke-miterlimit:4;stroke-dasharray:none;stroke-opacity:1;paint-order:markers fill stroke"
     d="m 31.183314,43.340996 c -0.16199,-0.556829 -0.3251,-1.045489 -0.362467,-1.085912 -0.03737,-0.04042 -0.299072,-0.0063 -0.581567,0.07582 -0.282496,0.08212 -0.525279,0.135445 -0.539518,0.118492 -0.01424,-0.01695 -0.158093,-0.476287 -0.319676,-1.020742 -0.161583,-0.544455 -0.327865,-1.02709 -0.369516,-1.072522 -0.04571,-0.04986 -0.22851,-0.03866 -0.461086,0.02824 -0.211946,0.06096 -0.451525,0.129743 -0.532398,0.152848 -0.102787,0.02936 -0.165307,-0.0333 -0.207735,-0.208221 -0.03338,-0.137626 -0.180382,-0.641257 -0.326669,-1.119181 l -0.265975,-0.868952 -0.471211,0.125446 c -0.259167,0.06899 -0.518091,0.125925 -0.575386,0.126513 -0.0573,6.3e-4 -0.157266,-0.206083 -0.222155,-0.459268 -0.06489,-0.253184 -0.167973,-0.479519 -0.229074,-0.502966 -0.0611,-0.02345 -0.324127,0.01982 -0.5845,0.09614 -0.260374,0.07633 -0.481622,0.13055 -0.491664,0.120498 -0.04359,-0.04364 -0.57325,-1.898201 -0.57325,-2.007196 0,-0.07432 0.336998,-0.223578 0.877427,-0.388614 1.275637,-0.389553 1.202564,-0.397299 1.366304,0.144831 0.07759,0.25689 0.167449,0.492501 0.199689,0.523579 0.03224,0.03108 0.273023,-0.0072 0.535074,-0.08499 0.262051,-0.07782 0.505516,-0.110948 0.541032,-0.07362 0.03552,0.03733 0.194355,0.493091 0.352974,1.012798 0.15862,0.519707 0.322821,0.982098 0.364892,1.027535 0.04595,0.04963 0.295522,0.0163 0.62507,-0.08348 0.517439,-0.156668 0.54529,-0.179236 0.490665,-0.397588 -0.03185,-0.127321 -0.459651,-1.576392 -0.950665,-3.220157 -0.491014,-1.643765 -0.892753,-3.030775 -0.892753,-3.082244 0,-0.05991 0.415207,-0.09358 1.154127,-0.09358 h 1.154128 l 0.345766,1.128243 c 0.190171,0.620534 0.389629,1.187584 0.44324,1.260111 0.08533,0.115433 0.161967,0.113454 0.614931,-0.01588 0.284601,-0.08126 0.517037,-0.192722 0.516523,-0.247695 -5.14e-4,-0.05497 -0.13833,-0.555538 -0.306259,-1.112366 l -0.305325,-1.012417 h 0.576237 0.576236 v -1.397708 c 0,-1.176753 0.02195,-1.406133 0.13887,-1.450999 0.07638,-0.02931 0.159637,-0.03252 0.185018,-0.0071 0.02538,0.02538 0.334225,1.012428 0.68632,2.193437 0.352096,1.181009 0.649922,2.160529 0.661836,2.17671 0.03324,0.04515 1.117641,-0.271454 1.159009,-0.338389 0.02002,-0.03239 -0.179313,-0.795757 -0.442965,-1.696362 l -0.479367,-1.637464 0.912985,-0.276883 c 0.502142,-0.152286 0.975243,-0.294449 1.051338,-0.315917 0.145517,-0.04106 0.202608,0.114338 1.118061,3.043193 0.331169,1.05953 0.447327,1.32739 0.575624,1.32739 0.255297,0 1.002727,-0.278161 1.002727,-0.373173 0,-0.04745 -0.202483,-0.778402 -0.449963,-1.624334 -0.247479,-0.845932 -0.449963,-1.571168 -0.449963,-1.611636 0,-0.0546 0.805421,-0.350529 0.954023,-0.350529 0.01179,0 0.09041,0.212608 0.174713,0.472461 0.08431,0.259854 0.17953,0.501661 0.21161,0.537349 0.03208,0.03569 0.256269,0.0053 0.498199,-0.06749 0.241931,-0.07281 0.472033,-0.132383 0.511339,-0.132383 0.08466,0 0.349755,0.817358 1.339294,4.12944 0.751712,2.516054 0.765931,2.614015 0.380094,2.618623 -0.06346,7.56e-4 -0.251865,0.05841 -0.418679,0.128104 l -0.303298,0.126726 0.306188,1.062459 c 0.168404,0.584352 0.306189,1.086882 0.306189,1.116735 0,0.02985 -0.222731,0.124486 -0.494959,0.210298 -0.29823,0.09401 -0.494959,0.207471 -0.494959,0.285465 0,0.07119 0.121726,0.562948 0.270503,1.092786 0.148775,0.529838 0.239893,0.991027 0.202483,1.024863 -0.09292,0.08404 -9.735258,2.96093 -9.930207,2.962776 -0.02915,2.7e-4 -0.185539,-0.455085 -0.347529,-1.011914 z"
     id="path6463"
     inkscape:connector-curvature="0" />
  <path
     style="fill:#ffffff;fill-opacity:1;stroke:none;stroke-width:0.00521957;stroke-miterlimit:4;stroke-dasharray:none;stroke-opacity:1;paint-order:markers fill stroke"
     d="m 26.344641,27.187335 -0.36246,-1.237398 0.52852,-0.02679 0.528519,-0.02679 v -1.065988 c 0,-0.889025 0.02363,-1.075057 0.142349,-1.120613 0.419602,-0.161016 0.427596,-0.145241 1.146623,2.262684 0.380583,1.274519 0.69172,2.34768 0.691416,2.384802 -3.03e-4,0.03712 -0.520741,0.06749 -1.156529,0.06749 h -1.155978 z"
     id="path6465"
     inkscape:connector-curvature="0" />
</svg>
